REM DIRINDEX 1\2,1\3,1\4,1\5
REM DIRNAME folder01,folder02,folder03,folder04,folder05
TITLE ""
FILE "Round-14-336-337.mp3" MP3
  TRACK 01 AUDIO
    TITLE "0:"
    INDEX 01 00:00:00
  TRACK 02 AUDIO
    TITLE "2:cjc093_3677"
    INDEX 01 00:00:01
  TRACK 03 AUDIO
    TITLE "0:"
    INDEX 01 00:01:01
  TRACK 04 AUDIO
    TITLE "3:cjc093_3678"
    INDEX 01 00:01:42
  TRACK 05 AUDIO
    TITLE "0:"
    INDEX 01 00:03:08
  TRACK 06 AUDIO
    TITLE "4:cjc093_3679"
    INDEX 01 00:03:23
  TRACK 07 AUDIO
    TITLE "0:"
    INDEX 01 00:06:43
  TRACK 08 AUDIO
    TITLE "2:cjc093_3680"
    INDEX 01 00:07:64
  TRACK 09 AUDIO
    TITLE "0:"
    INDEX 01 00:09:10
  TRACK 10 AUDIO
    TITLE "3:cjc093_3681"
    INDEX 01 00:09:57
  TRACK 11 AUDIO
    TITLE "0:"
    INDEX 01 00:12:14
  TRACK 12 AUDIO
    TITLE "4:cjc093_3682"
    INDEX 01 00:12:44
  TRACK 13 AUDIO
    TITLE "0:"
    INDEX 01 00:16:04
  TRACK 14 AUDIO
    TITLE "3:cjc093_3683"
    INDEX 01 00:17:16
  TRACK 15 AUDIO
    TITLE "0:"
    INDEX 01 00:18:44
  TRACK 16 AUDIO
    TITLE "4:cjc093_3684"
    INDEX 01 00:19:11
  TRACK 17 AUDIO
    TITLE "0:"
    INDEX 01 00:23:53
  TRACK 18 AUDIO
    TITLE "2:cjc093_3685"
    INDEX 01 00:24:67
  TRACK 19 AUDIO
    TITLE "0:"
    INDEX 01 00:26:05
  TRACK 20 AUDIO
    TITLE "3:cjc093_3686"
    INDEX 01 00:26:48
  TRACK 21 AUDIO
    TITLE "0:"
    INDEX 01 00:30:34
  TRACK 22 AUDIO
    TITLE "4:cjc093_3687"
    INDEX 01 00:30:48
  TRACK 23 AUDIO
    TITLE "0:"
    INDEX 01 00:34:67
  TRACK 24 AUDIO
    TITLE "2:cjc093_3688"
    INDEX 01 00:36:07
  TRACK 25 AUDIO
    TITLE "0:"
    INDEX 01 00:37:34
  TRACK 26 AUDIO
    TITLE "3:cjc093_3689"
    INDEX 01 00:38:00
  TRACK 27 AUDIO
    TITLE "0:"
    INDEX 01 00:39:58
  TRACK 28 AUDIO
    TITLE "4:cjc093_3690"
    INDEX 01 00:40:11
  TRACK 29 AUDIO
    TITLE "0:"
    INDEX 01 00:43:29
  TRACK 30 AUDIO
    TITLE "2:cjc093_3691"
    INDEX 01 00:44:40
  TRACK 31 AUDIO
    TITLE "0:"
    INDEX 01 00:45:37
  TRACK 32 AUDIO
    TITLE "3:cjc093_3692"
    INDEX 01 00:46:23
  TRACK 33 AUDIO
    TITLE "0:"
    INDEX 01 00:47:50
  TRACK 34 AUDIO
    TITLE "4:cjc093_3693"
    INDEX 01 00:48:08
  TRACK 35 AUDIO
    TITLE "0:"
    INDEX 01 00:51:16
  TRACK 36 AUDIO
    TITLE "3:cjc093_3694"
    INDEX 01 00:52:32
  TRACK 37 AUDIO
    TITLE "0:"
    INDEX 01 00:54:13
  TRACK 38 AUDIO
    TITLE "4:cjc093_3695"
    INDEX 01 00:54:32
  TRACK 39 AUDIO
    TITLE "0:"
    INDEX 01 00:57:17
  TRACK 40 AUDIO
    TITLE "2:cjc093_3696"
    INDEX 01 00:58:32
  TRACK 41 AUDIO
    TITLE "0:"
    INDEX 01 00:59:43
  TRACK 42 AUDIO
    TITLE "3:cjc093_3697"
    INDEX 01 00:59:71
  TRACK 43 AUDIO
    TITLE "0:"
    INDEX 01 01:02:61
  TRACK 44 AUDIO
    TITLE "4:cjc093_3698"
    INDEX 01 01:03:18
  TRACK 45 AUDIO
    TITLE "0:"
    INDEX 01 01:08:23
  TRACK 46 AUDIO
    TITLE "2:cjc093_3699"
    INDEX 01 01:09:38
  TRACK 47 AUDIO
    TITLE "0:"
    INDEX 01 01:10:59
  TRACK 48 AUDIO
    TITLE "3:cjc093_3700"
    INDEX 01 01:11:31
  TRACK 49 AUDIO
    TITLE "0:"
    INDEX 01 01:13:10
  TRACK 50 AUDIO
    TITLE "4:cjc093_3701"
    INDEX 01 01:13:34
  TRACK 51 AUDIO
    TITLE "0:"
    INDEX 01 01:16:44
  TRACK 52 AUDIO
    TITLE "2:cjc093_3702"
    INDEX 01 01:17:57
  TRACK 53 AUDIO
    TITLE "0:"
    INDEX 01 01:18:62
  TRACK 54 AUDIO
    TITLE "3:cjc093_3703"
    INDEX 01 01:19:38
  TRACK 55 AUDIO
    TITLE "0:"
    INDEX 01 01:22:11
  TRACK 56 AUDIO
    TITLE "4:cjc093_3704"
    INDEX 01 01:22:39
  TRACK 57 AUDIO
    TITLE "0:"
    INDEX 01 01:26:58
  TRACK 58 AUDIO
    TITLE "2:cjc093_3705"
    INDEX 01 01:27:69
  TRACK 59 AUDIO
    TITLE "0:"
    INDEX 01 01:29:07
  TRACK 60 AUDIO
    TITLE "3:cjc093_3706"
    INDEX 01 01:29:46
  TRACK 61 AUDIO
    TITLE "0:"
    INDEX 01 01:31:38
  TRACK 62 AUDIO
    TITLE "4:cjc093_3707"
    INDEX 01 01:32:15
  TRACK 63 AUDIO
    TITLE "0:"
    INDEX 01 01:35:35
